:version 1.10
:name ASF
:units
  mass 1
  length 1
  angle deg
:documentation
  ASF file generated by Kaydara
:root
  axis xyz
  order  tx ty tz rx ry rz
  position 0 0 0
  orientation 0 0 0
:bonedata
  begin
    id 1
    name lfemurDummy
    direction 0.61522 -0.761478 0.204097
    length 5.68318
    axis 0 -0 0 xyz
  end
  begin
    id 2
    name lfemur
    direction 0.34202 -0.939693 -5.84747e-008
    length 16.9147
    axis 0 -0 20 xyz
    dof rx ry rz
    limits( -inf , inf )
( -inf , inf )
( -inf , inf )

  end
  begin
    id 3
    name ltibia
    direction 0.34202 -0.939693 1.20839e-009
    length 18.0532
    axis 0 -0 20 xyz
    dof rz ry rx
    limits( -inf , inf )
( -inf , inf )
( -inf , inf )

  end
  begin
    id 4
    name lfoot
    direction 0.0841971 -0.23133 0.969225
    length 5.23822
    axis -90 7.62852e-016 20 xyz
    dof ry rx rz
    limits( -inf , inf )
( -inf , inf )
( -inf , inf )

  end
  begin
    id 5
    name ltoes
    direction 0 0 0
    length 0
    axis 0 0 0 xyz
    dof rz ry rx
    limits( -inf , inf )
( -inf , inf )
( -inf , inf )

  end
  begin
    id 6
    name rfemurDummy
    direction -0.625247 -0.75382 0.202044
    length 5.74091
    axis 0 -0 0 xyz
  end
  begin
    id 7
    name rfemur
    direction -0.34202 -0.939693 -1.47013e-008
    length 16.4922
    axis 0 -0 -20 xyz
    dof rx ry rz
    limits( -inf , inf )
( -inf , inf )
( -inf , inf )

  end
  begin
    id 8
    name rtibia
    direction -0.34202 -0.939693 -7.74345e-010
    length 18.2421
    axis 0 -0 -20 xyz
    dof rz ry rx
    limits( -inf , inf )
( -inf , inf )
( -inf , inf )

  end
  begin
    id 9
    name rfoot
    direction -0.124331 -0.341598 0.931586
    length 5.45787
    axis -90 -7.62852e-016 -20 xyz
    dof ry rx rz
    limits( -inf , inf )
( -inf , inf )
( -inf , inf )

  end
  begin
    id 10
    name rtoes
    direction 0 0 0
    length 0
    axis 0 0 0 xyz
    dof rz ry rx
    limits( -inf , inf )
( -inf , inf )
( -inf , inf )

  end
  begin
    id 11
    name lowerbackDummy
    direction 0 0 0
    length 0
    axis 0 -0 0 xyz
  end
  begin
    id 12
    name lowerback
    direction -0.0218484 0.994884 -0.0986304
    length 4.45607
    axis 0 -0 0 xyz
    dof rx ry rz
    limits( -inf , inf )
( -inf , inf )
( -inf , inf )

  end
  begin
    id 13
    name upperback
    direction -0.00973057 0.999717 -0.0217111
    length 4.47449
    axis 0 -0 0 xyz
    dof rx ry rz
    limits( -inf , inf )
( -inf , inf )
( -inf , inf )

  end
  begin
    id 14
    name thorax
    direction -0.000928171 0.999699 0.0245198
    length 4.50973
    axis 0 -0 0 xyz
    dof rx ry rz
    limits( -inf , inf )
( -inf , inf )
( -inf , inf )

  end
  begin
    id 15
    name rclavicle
    direction -0.9009 0.425937 -0.0834055
    length 7.28587
    axis 0 -0 0 xyz
    dof rx ry rz
    limits( -inf , inf )
( -inf , inf )
( -inf , inf )

  end
  begin
    id 16
    name rhumerus
    direction -1 -2.23604e-007 -1.42637e-007
    length 13.5704
    axis 180 30 90 xyz
    dof rx ry rz
    limits( -inf , inf )
( -inf , inf )
( -inf , inf )

  end
  begin
    id 17
    name rradius
    direction -1 5.68281e-008 -4.4952e-007
    length 8.06782
    axis 180 30 90 xyz
    dof rz ry rx
    limits( -inf , inf )
( -inf , inf )
( -inf , inf )

  end
  begin
    id 18
    name rwrist
    direction -1 1.51393e-007 1.38143e-007
    length 4.03391
    axis -90 -90 0 xyz
    dof rz rx ry
    limits( -inf , inf )
( -inf , inf )
( -inf , inf )

  end
  begin
    id 19
    name rthumb
    direction 0 0 0
    length 0
    axis 0 0 0 xyz
    dof ry rx rz
    limits( -inf , inf )
( -inf , inf )
( -inf , inf )

  end
  begin
    id 20
    name rhand
    direction -1 -3.34077e-007 -5.59631e-007
    length 1.29744
    axis -90 -90 0 xyz
    dof ry rx rz
    limits( -inf , inf )
( -inf , inf )
( -inf , inf )

  end
  begin
    id 21
    name rfingers
    direction 0 0 0
    length 0
    axis 0 0 0 xyz
    dof rz ry rx
    limits( -inf , inf )
( -inf , inf )
( -inf , inf )

  end
  begin
    id 22
    name lclavicle
    direction 0.940017 0.332249 -0.0773232
    length 8.29589
    axis 0 -0 0 xyz
    dof rx ry rz
    limits( -inf , inf )
( -inf , inf )
( -inf , inf )

  end
  begin
    id 23
    name lhumerus
    direction 1 7.41158e-008 -1.44768e-008
    length 12.0042
    axis 180 -30 -90 xyz
    dof rx ry rz
    limits( -inf , inf )
( -inf , inf )
( -inf , inf )

  end
  begin
    id 24
    name lradius
    direction 1 -1.32972e-007 3.10821e-007
    length 8.1902
    axis 180 -30 -90 xyz
    dof rz ry rx
    limits( -inf , inf )
( -inf , inf )
( -inf , inf )

  end
  begin
    id 25
    name lwrist
    direction 1 3.08957e-007 4.01394e-007
    length 4.09509
    axis -90 90 0 xyz
    dof rz rx ry
    limits( -inf , inf )
( -inf , inf )
( -inf , inf )

  end
  begin
    id 26
    name lthumb
    direction 0 0 0
    length 0
    axis 0 0 0 xyz
    dof ry rx rz
    limits( -inf , inf )
( -inf , inf )
( -inf , inf )

  end
  begin
    id 27
    name lhand
    direction 1 -1.64125e-007 -6.99514e-007
    length 1.37229
    axis -90 90 0 xyz
    dof ry rx rz
    limits( -inf , inf )
( -inf , inf )
( -inf , inf )

  end
  begin
    id 28
    name lfingers
    direction 0 0 0
    length 0
    axis 0 0 0 xyz
    dof rz ry rx
    limits( -inf , inf )
( -inf , inf )
( -inf , inf )

  end
  begin
    id 29
    name lowerneck
    direction -0.030798 0.998024 0.0547665
    length 3.93918
    axis 0 -0 0 xyz
    dof rx ry rz
    limits( -inf , inf )
( -inf , inf )
( -inf , inf )

  end
  begin
    id 30
    name upperneck
    direction 0.0531588 0.996611 -0.0627736
    length 3.95491
    axis 0 -0 0 xyz
    dof rx ry rz
    limits( -inf , inf )
( -inf , inf )
( -inf , inf )

  end
  begin
    id 31
    name head
    direction 0 0 0
    length 0
    axis 0 0 0 xyz
    dof rx ry rz
    limits( -inf , inf )
( -inf , inf )
( -inf , inf )

  end
:hierarchy
  begin
    root lfemurDummy rfemurDummy lowerbackDummy
    lfemurDummy lfemur
    lfemur ltibia
    ltibia lfoot
    lfoot ltoes
    rfemurDummy rfemur
    rfemur rtibia
    rtibia rfoot
    rfoot rtoes
    lowerbackDummy lowerback
    lowerback upperback
    upperback thorax
    thorax rclavicle lclavicle lowerneck
    rclavicle rhumerus
    rhumerus rradius
    rradius rwrist
    rwrist rthumb rhand
    rhand rfingers
    lclavicle lhumerus
    lhumerus lradius
    lradius lwrist
    lwrist lthumb lhand
    lhand lfingers
    lowerneck upperneck
    upperneck head
  end

:SAMPLES-PER-SECOND 30
:FULLY-SPECIFIED
:DEGREES
47
root  0.7741955322 33.60777727 -1.240142218 11.71099854 -71.96199799 -39.89500427
lowerback  5.108280182 5.56719017 2.280750036
upperback  1.155150056 7.421410084 -3.636490107
thorax  -0.8781920075 3.697400093 -5.411650181
lowerneck  -7.643089771 8.20372963 -5.517839909
upperneck  14.39890003 10.4137001 10.3118
head  4.687950134 5.498429775 4.679500103
lclavicle  0 -9.442270133e-015 7.951389973e-016
lhumerus  2.198270082 -22.09079933 79.85199738
lradius  2.571884559e-031 -2.419556541e-031 136.7480011
lwrist  -7.062250077e-031 -1.765562519e-031 11.36320019
lhand  -1.496451383e-031 -27.76390076 20.11240005
lfingers  90 7.125020027 -90
lthumb  89.89689403 5.08795885 91.16245106
rclavicle  0 -9.442270133e-015 7.951389973e-016
rhumerus  -4.523230076 21.61599922 -80.03530121
rradius  -2.259454882e-031 2.713615241e-031 129.7819977
rwrist  1.059337512e-030 -0 -4.045629978
rhand  -7.920061211e-032 -33.2840004 9.303460121
rfingers  -90 -7.125020027 -90
rthumb  -92.93752616 -24.25625642 -97.11982154
rfemur  8.461330414 4.27256012 16.03420067
rtibia  -0 0 74.54930115
rfoot  -0 -22.13400078 -6.752810001
rtoes  5.373923086 19.29304026 -105.8922705
lfemur  -19.97739983 -6.24368 14.57590008
ltibia  -0 0 73.69129944
lfoot  -0 -14.35280037 -9.270910263
ltoes  -4.250644065 -19.5611806 -102.515957
48
root  0.7597799846 33.4777772 -1.20012441 11.34100342 -71.35299683 -39.60299683
lowerback  5.473189831 5.494750023 2.436670065
upperback  1.486529946 7.342579842 -3.459510088
thorax  -0.7505779862 3.666140079 -5.330440044
lowerneck  -7.117650032 8.313830376 -5.311979771
upperneck  13.84280014 10.56210041 10.17230034
head  4.438109875 5.562419891 4.556240082
lclavicle  0 -9.442270133e-015 7.951389973e-016
lhumerus  2.199429989 -22.43880081 80.4484024
lradius  2.56575291e-031 -2.426057716e-031 136.6029968
lwrist  -7.062250077e-031 -0 11.11260033
lhand  -1.496451383e-031 -27.76390076 20.11240005
lfingers  90 7.125020027 -90
lthumb  89.89689403 5.08795885 91.16245106
rclavicle  0 -9.442270133e-015 7.951389973e-016
rhumerus  -3.817389965 21.23769951 -78.98899841
rradius  -2.317416996e-031 2.66428649e-031 131.0169983
rwrist  1.059337512e-030 -1.765562519e-031 -3.40038991
rhand  -7.920061211e-032 -33.2840004 9.303460121
rfingers  -90 -7.125020027 -90
rthumb  -92.93752616 -24.25625642 -97.11982154
rfemur  7.83920002 4.00248003 16.01849937
rtibia  -0 0 75.23699951
rfoot  -9.560874662e-032 -22.58259964 -6.698140144
rtoes  5.373923086 19.29304026 -105.8922705
lfemur  -20.7397995 -5.892859936 14.29759979
ltibia  -0 0 74.50060272
lfoot  -0 -15.37619972 -7.415959835
ltoes  -4.250644065 -19.5611806 -102.515957
49
root  0.7454644507 33.33399915 -1.149715589 9.753005981 -71.0019989 -38.18099976
lowerback  6.14729023 5.492650032 2.250629902
upperback  1.823140025 7.330580235 -3.398119926
thorax  -0.8088529706 3.66031003 -5.217790127
lowerneck  -6.663839817 8.390669823 -4.83468008
upperneck  13.4041996 10.64620018 9.898489952
head  4.266540051 5.599999905 4.359379768
lclavicle  0 -9.442270133e-015 7.951389973e-016
lhumerus  2.064069986 -22.7784996 80.95819855
lradius  2.561726777e-031 -2.430308613e-031 136.5079956
lwrist  -7.062250077e-031 -1.765562519e-031 10.82970047
lhand  -1.496451383e-031 -27.76390076 20.11240005
lfingers  90 7.125020027 -90
lthumb  89.89689403 5.08795885 91.16245106
rclavicle  0 -9.442270133e-015 7.951389973e-016
rhumerus  -3.323580027 20.96800041 -78.09079742
rradius  -2.36809165e-031 2.619348387e-031 132.1159973
rwrist  7.062250077e-031 -3.531125038e-031 -2.34559989
rhand  -7.920061211e-032 -33.2840004 9.303460121
rfingers  -90 -7.125020027 -90
rthumb  -92.93752616 -24.25625642 -97.11982154
rfemur  7.442930222 3.850330114 15.35429955
rtibia  -0 0 75.93800354
rfoot  -4.794400538e-032 -22.98049927 -6.433479786
rtoes  5.373923086 19.29304026 -105.8922705
lfemur  -21.05419922 -5.655039787 13.52180004
ltibia  -0 0 75.35549927
lfoot  4.602558964e-032 -16.4612999 -5.835189819
ltoes  -4.250644065 -19.5611806 -102.515957
50
root  0.7735555566 33.1726675 -1.127057751 9.444000244 -70.58300018 -37.60600281
lowerback  6.701479912 5.394869804 2.084450006
upperback  1.89921999 7.195610046 -3.177059889
thorax  -1.100939989 3.585010052 -4.949069977
lowerneck  -5.985390186 8.52696991 -4.387750149
upperneck  12.85529995 10.83419991 9.479539871
head  4.02478981 5.673230171 4.110690117
lclavicle  0 -9.442270133e-015 7.951389973e-016
lhumerus  1.545670033 -22.94589996 81.51730347
lradius  2.562659895e-031 -2.42932466e-031 136.5299988
lwrist  -1.412450015e-030 -0 10.46080017
lhand  -1.496451383e-031 -27.76390076 20.11240005
lfingers  90 7.125020027 -90
lthumb  89.89689403 5.08795885 91.16245106
rclavicle  0 -9.442270133e-015 7.951389973e-016
rhumerus  -3.001300097 21.06040001 -77.37660217
rradius  -2.415648257e-031 2.575555772e-031 133.1649933
rwrist  0 -0 -1.552360058
rhand  -7.920061211e-032 -33.2840004 9.303460121
rfingers  -90 -7.125020027 -90
rthumb  -92.93752616 -24.25625642 -97.11982154
rfemur  6.429860115 3.688529968 15.04500008
rtibia  -0 0 76.7736969
rfoot  -4.800307851e-032 -23.14620018 -6.270540237
rtoes  5.373923086 19.29304026 -105.8922705
lfemur  -21.89380074 -5.221839905 13.26060009
ltibia  -0 0 76.13749695
lfoot  4.624272734e-032 -17.34860039 -4.706970215
ltoes  -4.250644065 -19.5611806 -102.515957
